<?xml version="1.0" standalone="yes"?>
<svg width="1350" height="675" xmlns="http://www.w3.org/2000/svg" stroke="none">
<path style="fill:#fdfdfd" d="M0 0L0 69L8 70L8 71L0 71C0.0395034 82.1523 6.81182 79.7651 14.946 83.652C18.5131 85.3566 19.9106 88.329 24 89L23 86L37 89L37 90L27 91L27 92L29 94L27 96L6 89L1 89L2 93C-3.55887 97.8576 0 119.672 0 127L0 226L0 630L8 632L9 632L25.0008 631.013L65 633C65 630.075 71.9888 631.252 75 630.667C78.9683 629.895 82.4201 627.571 86 627C94.5678 625.634 102.896 629.99 111 626C125.939 618.645 143.041 620.552 159 619C169.749 617.955 180.283 617.777 191 617C194.934 616.715 197.448 613.36 201 613C204.727 612.622 208.255 615.156 212 615C239.943 613.836 266.245 619 294 619L294 617L290 617L288 615L288 614L293 614L293 612L287 612C297.829 603.326 309.133 609.076 321.039 609.946C330.42 610.632 339.626 609.818 349 611.17C355.218 612.066 362.542 615.119 368.83 614.552C373.532 614.129 377.389 609.891 382.09 609.444C389.52 608.738 396.504 613.154 404 611L393 607L401 605L401 604L394 604L402 598L425 597L422 589C425.971 588.416 427.416 586.971 428 583L429 583L429 586L434 585L435 581L456 576L455 578L459 578L459 579C452.786 579.197 445.366 581.846 449 589L446 590L447 596L444 597L445 601C449.539 605.27 451.06 609.792 446 614L447 616L443 617L443 618C472.316 623.685 503.938 634.094 534.039 631.805C550.586 630.546 566.752 622.525 583 620L581 616C590.516 615.788 596.16 612.667 605 610.533C613.415 608.502 622.406 609.011 630.911 607.867C635.069 607.308 646.269 606.821 646 603L653 603C653.676 607.058 667.523 605.91 671 605L690 603.17L727 601.549L747 601C747.651 606.12 761.919 603.016 766 602C770.761 607.449 798.657 602.582 798 595L803 595L802 597C807.507 598.227 822.329 604.208 824 596C829.715 595.502 845.357 594.191 849 590L866 590L864 587C870.125 585.415 882.927 581.602 885 590L921 591.961L937 595C932.376 596.86 932.854 601.527 933 606L930 608C939.153 608.981 943.11 603.109 951 600.444C963.568 596.201 977.652 591.888 991 589.912C1009.91 587.114 1029.02 588.43 1048 587.545C1052.46 587.337 1056.53 585.135 1061 585.083C1071.13 584.963 1080.74 588.412 1091 588L1091 585L1108 587L1108 588L1103 589L1103 590L1146 587.553L1157.96 588.944L1170 586.015L1217 589L1217 590L1214 591L1214 592L1228.98 594.699L1266 597.614L1284 601L1285 601L1291 604L1291 602L1316 606L1313 610L1284 620C1287.16 627.974 1290.56 631.726 1300 630L1300 627L1320 627.238L1350 630L1350 94L1336 96C1341.68 95.9939 1344.35 98.9439 1348 103C1335.31 103 1325.94 108.68 1314 110.44C1303.2 112.032 1286.94 107.604 1282 121L1287 121L1287 122L1287 127C1282.57 126.83 1281.45 128.75 1282 133L1269 138L1263 146C1261.56 140.915 1257.78 133.303 1259.61 128.039C1262.77 118.96 1280.13 114.291 1287.73 109.586C1290.67 107.768 1291.54 105.086 1295 104L1295 103L1276 108L1277 105C1268.43 105.532 1255.94 106.05 1253 116C1233.41 112.226 1213.43 112.51 1196.09 122.766C1191.44 125.518 1184.93 128.429 1182 133L1188 133L1187 136L1204 137C1201.19 154.394 1190.9 172.552 1172 177C1167.43 171.823 1157.5 185.85 1153 188C1154.99 195.045 1160.86 197.868 1159 206L1150 208C1149.9 204.084 1152.64 192.119 1145 196L1146 189C1140.62 187.719 1136.68 187.913 1132 191L1134 185C1127.51 183.287 1120.55 188.824 1115 192L1115 193L1121 195L1122 199L1134 197L1134 199L1125 201L1122 208L1131 217L1131 218L1126 217L1126 218L1132 222L1126 224L1130 224C1131.56 229.663 1127.62 232.266 1124.46 236.576C1118.47 244.732 1111.49 254.331 1100 251L1101 254L1088 258L1089 260L1089 261L1087 256L1075 258C1066.67 273.271 1086.31 275.312 1083.99 289.996C1082.97 296.402 1073.25 300.423 1069 305C1068.62 300.28 1067.25 296.541 1062 296C1060.5 291.823 1058.36 290.49 1054 290L1053 286C1036.89 296.484 1056.32 310.299 1061.12 319.039C1063.13 322.711 1063.71 327.958 1065 332C1042.24 321.232 1048.05 291.47 1039 272C1029.55 282.104 1031.68 271.642 1027.86 265.09C1024.99 260.167 1020.8 257.743 1019 252L1015 252L1014 255L1007 256L1006 256L1006 254L1005 254L992 264L983 276C974.26 277.191 971.815 295.145 971 303L966 307L965 307L949.899 272L947 254C942.078 259.814 939.409 259.073 934 254L939 251C935.662 251.177 934.215 251.306 933 248L925 241C914.977 242.916 902.981 244.27 893.108 240.772C890.389 239.808 889.374 236.523 886.727 235.815C882.301 234.631 879.114 237.818 874.282 235.369C868.352 232.363 864.394 226.74 859 223L858 223C852.337 229.696 860.585 238.926 866 244L867 240L868 240L867 247C875.385 248.7 880.133 245.801 886 240C886.413 247.483 892.863 249.947 899 253L887 270C874.946 271.796 863.569 281.39 852 285.622C848.933 286.744 841.686 290.171 838.785 287.779C834.647 284.369 833.682 272.153 830.305 267.015C826.279 260.89 821.315 257.914 822 250C816.598 250 806.141 232.348 806 227L805 227L804 233L796 225L809 253C814.868 252.79 813.523 262.188 814.833 266C815.724 268.592 818.123 268.898 819.667 271C824.031 276.943 823.004 289.053 832 290L827 282L837 293L834 294L834 295L842.089 298.373L867 293C863.732 303.752 859.76 314.439 851.896 322.996C843.483 332.15 831.342 338.226 824.67 349.174C820.203 356.503 818.679 371.648 827 377C825.363 382.628 828.958 390.253 826.052 395.165C821.618 402.662 810.326 403.682 806.068 411.464C803.562 416.044 808.864 421.612 806.976 426.671C805.458 430.739 800.091 430.542 798.183 434.225C792.505 445.181 788.356 457.801 775 463.16C770.059 465.143 752.343 468.614 747.762 465.897C743.621 463.441 744.374 458.819 742.6 455C739.682 448.721 734.843 443.384 732.327 436.999C730.406 432.125 730.924 426.916 729.491 422C727.475 415.084 720.185 409.351 719.772 402C719.302 393.657 726.137 388.308 726.812 380.961C727.472 373.791 721.789 365.71 724 359C720.945 358.603 719.981 355.37 718.056 353C715.608 349.988 710.388 345.937 709.75 342C708.653 335.233 716.86 326.43 708.917 320.917C705.385 318.465 702.613 321.698 699.028 320.639C694.512 319.306 694.442 313.508 689 313.028C681.778 312.391 675.73 316.704 669 318.278C651.272 322.422 634.555 318.219 625.056 302.083C622.794 298.242 618.839 296.622 618 292C615.326 292 610.207 288.618 615 288L615 287C609.808 281.575 614.888 275.495 614.884 269C614.882 264.913 611.787 259.409 612.832 255.715C616.558 242.534 627.205 237.166 635.848 228.671C639.377 225.202 638.276 220.13 641.113 216.213C644.941 210.927 650.656 209.231 654 203C661.489 209.487 671.069 204.3 678.985 201.659C688.07 198.628 706.091 196.813 715 200L716 207L712 209L712 210L728.896 216.029L748 224L749 227L750 227L750 217C756.642 214.498 763.361 215.374 769 220L788 222C794.651 217.183 801.36 224.47 807 215L807 223L808 223C808.833 220.443 810.323 215.554 807 215L811 199C798.502 200.626 788.869 201.049 777 197L777 191L775 191L773 188C781.019 185.494 794.829 180.28 803 180.875C810 181.385 824.165 188.475 830.353 182.146C835.468 176.914 818.22 170.269 815 169L822 160L805 164L808 169L801 171L799 166L802 166L802 164C798.835 163.795 795.032 161.744 791.965 162.643C786.032 164.382 774.639 177.279 782 182L782 183L764 186L759 185L760 192L765 194L765 195L754 193C751.616 182.893 743.214 175.449 733 173L734 171L730 167L727 169L727 166L720 167C722.329 175.714 731.632 181.909 740 184L740 185C737.556 186.607 737.338 187.587 739 190L739 191L736 193L735 187L711.741 171.898L686 176C685.895 181.53 678.847 184.736 674 186L675 193L652 202C650.15 197.398 646.443 198.003 642 198L643 193L640 192C642.402 186.102 643.079 182.145 641 176C654.052 173.035 670.988 181.041 671 163L658 155C662.234 155.129 667.522 157.047 669 152C673.892 153.404 679.215 152.198 681 147C687.894 146.366 694.672 144.553 698 138L711 137L707 124L713 124C709.752 137.288 719.416 134.069 730 137L755 132C753.682 118.373 766.212 128.113 767 118L764 118C768.745 113.15 781.302 113.985 788 113L788 112L755 109L754 102L771 95L770 91C758.681 90.5777 754.593 95.3333 745.018 100.377C738.433 103.847 737.872 109.425 745 112L740 114L736 117C736.246 119.518 736.948 122.935 734.962 124.971C732.019 127.989 724.843 130.009 724 125L715 113L714 113C709.994 119.434 702.538 119.052 696 118L696 117C698.764 115.937 697.211 115.26 695 115L695 114L699 111L696 112L694 105L703 101L718 98L712 99C718.281 94.2779 724.932 86.4417 733 86L733 85L731 84L741 81C740.418 78.0897 750.956 74.1747 750 78L757 76C757 72.7193 760.712 75.2776 763 76L764 73L770 72L769 75L776 74L778 71L779 71L790 73L790 74L783 74L783 75L800 79C808.801 76.9289 823.67 80.3798 830 87C818.01 89.038 809.056 88.3381 797 86L805 90C804.392 97.4815 811.809 98.6403 818 98L817 95L827 94L824 93L824 92L841 90L842 86L840 86L841 81L849 82L849 83L843 85C851.703 89.1884 868.1 82.3203 877 79L875 82L897 79L898 82L904 79L902 76L917 79C922.674 78.7501 929.634 83.1403 934 79L926 76L926 75C929.219 74.3561 928.075 72.66 926 71C935.074 67.8027 937.707 63.6992 948 65L944 70L947 71C946.493 74.655 945.74 79.0872 950 80C945.351 85.7888 941.222 87.2294 934 87L934 88C942.259 90.2341 948.797 88.1312 956 84L954 80L971 84L971 83L966 83L966 82L968 81C963.183 77.1233 957.852 77.7972 952 78L954 72L950 70L950 69L957 67C959.001 71.9783 964.291 71.1257 969 72L961 69L961 68L968 66L985 69L985 70L983 72L986 72L985 75L990 76L990 75L987 75L987 74L988 68L978 66L977 62L1002 61L1001 58C1008.68 55.1364 1026.6 49.5941 1034 54L1049 53C1055.42 47.9738 1063.07 46.8152 1071 47L1071 48L1067 48L1067 49L1076 49L1076 50L1074 50L1074 51C1083.39 50.8062 1093.48 47.1509 1100 56L1070 64L1070 65L1100 61L1099 63L1138 65L1139 64L1138 62L1160 64L1160 67L1156 66C1160.89 74.2334 1166.49 70.2249 1173.42 69.4591C1179.58 68.7793 1186.93 69.8263 1193 71L1200 70L1199 67L1218 65L1218 66L1216 66L1216 67L1236 67L1236 68L1234 68L1234 69L1248.04 71.946L1275 73L1274 76L1302.83 76.9784L1317 79L1315 75L1350 79C1350 75.4895 1350.99 71.8544 1347 71L1347 70L1350 70L1350 0L0 0z"/>
<path style="fill:#040404" d="M502 26L502 27L523 27L523 28L508 30L496 28L496 29L506 31L506 32L483 29L484 31L472 29L470 32C469.293 26.3772 446.434 29.5778 444 34L424 36L424 37L434 37C425.786 43.5565 412.892 41.0693 403 44L403 45L427 46L427 48L410 48L410 49L420 50L420 51L417 51L417 52C429.739 51.8339 462.076 46.9642 467 64L471 65L468 65L467 69L481 68L486 74L476 72C478.718 75.57 483.007 75.1692 487 74L485 76L486 79L483 80L483 81L486 83L474 83L473 85L473 86L479 86L481 89L481 90L475 88L475 89L479 90L479 91L477 91L477 92L481 91C478.202 102.58 493.673 106.914 501.536 109.266C504.089 110.03 505.93 112.486 508.75 112.488C513.611 112.492 516.068 106.659 514 103C519.081 101.379 521.615 99.2457 523 94L521 95L532 88L534 91L555 83L555 82L552 81L552 80C563.881 83.6848 576.418 79.2866 588 76L588 75L566 74L566 73L570 70L578 71L578 70L571 69L571 68L593 73C591.163 67.8898 584.98 65.9351 580 67L571 64L571 63L578 61L578 60L598 62L598 61L591 60L591 59L597 59L594 55L594 54L602 55C599.375 50.9534 594.473 51.3195 590 51L590 50L606 49L606 48L599 48C598.512 44.5502 595.624 45.9304 593 47C596.101 43.4788 598.29 42.1533 603 42L601 39C609.61 34.2072 621.017 33.3766 631 33L631 32L590 34L590 33L596 31L596 30L575 32L575 31L582 31L582 30L552 31L552 30L597 28L597 27L556 26L556 25L562 25L545 24L502 26M563 24L564 25L563 24M569 24L569 25L573 25L569 24M388 26L388 27L392 27L392 28L364 29.1204L354 31L341 30L341 31L345 31L345 32L342 32L342 33L361 33L361 34L353 34L353 35L383 32L383 33L381 33L381 34L388 34L388 35L369 36L371 39L352 37L352 38L369 41L369 42L348 43L348 44L357 44L357 45L355 46L365 45L365 46L346 46L346 47L348 49L340 49L340 50L378 51L375 48L375 47L394 43L394 42L384 42L385 39C397.61 42.4453 411.394 35.0298 424 34L424 33L417 33L417 32C423.729 30.7508 437.318 33.441 442 28L388 26M498 26L499 27L498 26z"/>
<path style="fill:#fdfdfd" d="M546.667 26.3333L547.333 26.6667L546.667 26.3333M551.667 26.3333L552.333 26.6667L551.667 26.3333M367 29L367 30L372 30L367 29M373 29L373 31L375 31L373 29M356 30L357 31L356 30z"/>
<path style="fill:#040404" d="M332 31L333 32L332 31M338 31L338 32L341 33L338 31z"/>
<path style="fill:#fdfdfd" d="M453 31L454 32L453 31M384.667 32.3333L385.333 32.6667L384.667 32.3333z"/>
<path style="fill:#040404" d="M425 32L426 33L425 32M428.667 32.3333L429.333 32.6667L428.667 32.3333M322 36L319 36L320 34L317 35L317 37L321 38L321 39L314 37L314 38L330 40L330 41L324 41L324 42C329.732 42.9705 339.849 46.716 344 41L354 40L354 39C349.925 39 345.274 38.9028 346 36L344 38C340.2 36.309 323.042 29.619 322 36M912 34L912 35L918 33L912 34M1022 37L1033 37L1033 38L1029 39L1029 40L1049 42L1050 38L1037 37L1037 36L1039 35C1033.65 32.439 1026.3 32.6052 1022 37M344 34L344 35L349 35L344 34z"/>
<path style="fill:#fdfdfd" d="M588 34L589 35L588 34z"/>
<path style="fill:#040404" d="M862 34L863 35L862 34M898 35L898 36L901 36L898 35M902 35L902 36L905 36L902 35M366.667 36.3333L367.333 36.6667L366.667 36.3333z"/>
<path style="fill:#fdfdfd" d="M602 36L598 38L598 39L603 37L602 36z"/>
<path style="fill:#040404" d="M606 36L607 37L606 36M608 38L613 37L608 38M748 37L748 38L756 38L756 39L753 39L753 40L776 38C769.147 35.1243 755.307 35.7643 748 37M855.667 36.3333L856.333 36.6667L855.667 36.3333M890 36L890 37L893 37L890 36z"/>
<path style="fill:#fdfdfd" d="M1035 36L1036 37L1035 36z"/>
<path style="fill:#040404" d="M302.667 37.3333L303.333 37.6667L302.667 37.3333M743 37L743 38L747 38L743 37z"/>
<path style="fill:#fdfdfd" d="M374 38L375 39L374 38z"/>
<path style="fill:#040404" d="M716 39L716 40L722 41L720 42L720 43L737 41L738 44L732 44L732 45L738 45L738 46L729 47L729 48L736 48L746 45L752 42L752 41L741 40L735 38L736 41L716 39z"/>
<path style="fill:#fdfdfd" d="M372 39L373 40L372 39M1045 39L1046 40L1045 39z"/>
<path style="fill:#040404" d="M280 40L281 41L280 40M282 40L283 41L282 40M284 40L284 41L301 45C296.914 40.7278 289.673 40.5287 284 40M1049 44L1049 45L1070 43C1062.67 39.1091 1056.08 40.9255 1049 44M307 42L307 43L317 45L317 44L307 42M753 43L756 44L754 46L754 47L764 47L764 46L758 45L753 43M256 43L257 44L256 43M260 43L260 44L264 44L260 43M283.667 43.3333L284.333 43.6667L283.667 43.3333z"/>
<path style="fill:#fdfdfd" d="M365 44L366 45L365 44z"/>
<path style="fill:#040404" d="M245.667 45.3333L246.333 45.6667L245.667 45.3333M252 46L252 47L262 47L252 46M729.667 45.3333L730.333 45.6667L729.667 45.3333M315 46L315 47L325 47L315 46M602 46L603 47L602 46M1049 53L1034 54C1029.95 49.5602 1001.88 53.9752 1002 61L977 62L978 66L988 68L987 74L987 75L990 75L990 76L985 75L986 72L983 72L985 70L985 69L968 66C968 69.2487 963.715 68 961 68L961 69L969 72C964.187 70.8535 959.809 71.5798 957 67L950 69L950 70L954 72L952 78C953.973 77.9917 970.201 78.1292 966 82L966 83L971 83L971 84L954 80L956 84C947.871 87.2506 942.933 89.5399 934 88L934 87C941.13 87.5384 946.278 86.8066 950 80C946.578 77.8116 946.796 74.8113 947 71L944 70L948 65C937.824 63.1108 934.619 66.6783 926 71L926 75L926 76L934 79L917 79C913.691 75.067 906.755 76.0005 902 76L904 79L898 82L897 79L875 82L877 79C866.603 81.4174 853.061 88.6657 843 85L849 83L849 82L841 81L840 86L842 86L841 90L824 92L824 93L827 94L817 95L818 98C812.135 98.3423 804.763 97.1034 805 90L797 86C808.556 88.9899 818.507 90.0723 830 87C825.24 79.8271 807.866 76.6801 800 79L783 75L783 74L790 74L790 73L779 71L778 71L776 74L769 75L770 72L764 73L763 76C760.869 75.0571 757.513 73.092 757 76L750 78C749.327 74.0509 741.414 77.9484 741 81L731 84L733 85L733 86C724.96 86.1943 717.323 93.3193 712 99L718 98L703 101L694 105C694.573 108.566 695.096 111.068 699 111L695 114L695 115L698 115L696 117L696 118C701.43 119.3 712.393 120.535 714 113L715 113L724 125C723.87 131.613 738.7 126.801 736 117L740 114L742 116L745 112C733.421 106.031 745.936 101.358 751.832 97.74C755.167 95.6936 756.432 92.238 760.538 91.1389C763.512 90.3426 766.956 90.9612 770 91L771 95L754 102L755 109C764.564 114.204 777.277 110.932 788 112L788 113C782.132 113.512 767.21 113.045 764 118L767 118C765.447 127.706 752.546 117.941 755 132C747.633 133.242 735.348 130.611 730 137C719.806 132.875 711.128 137.623 713 124L707 124L711 137L698 138C693.571 143.773 687.989 145.828 681 147C678.382 151.625 674.076 153.07 669 152C666.476 156.014 662.312 155.053 658 155L671 163C670.946 181.659 653.271 171.59 641 176L640 192L643 193L642 198C646.487 198.016 649.512 197.944 652 202L675 193L674 186C679.243 185.26 686.226 181.899 686 176L710.871 171.948L718.054 178.657L735 187L736 193L739 191L739 190L740 185L740 184C731.767 181.013 723.379 175.413 720 167L727 166L727 169L730 167L734 171L733 173L749 181L748 186L754 193L765 195L765 194L760 192L759 185L764 186L782 183L782 182C776.578 176.251 786.27 164.141 792.911 162.848C795.616 162.321 799.16 163.916 802 164L799 166L801 171L808 169L805 164L822 160L815 169C818.279 170.796 832.059 175.815 830.539 180.765C829.219 185.058 820.303 184.212 817 183.816C811.905 183.204 807.158 180.405 802 180.349C794.365 180.265 780.122 184.995 773 188L776 189L777 191L777 197C787.777 202.128 799.395 201.65 811 199L807 215C810.731 215 808.745 220.428 808 223L807 223L807 215L798.999 220.928L788 222L769 220C764.593 214.542 755.806 213.973 750 217L750 227L749 227L748 224L729.791 216.029L712 210L712 209L716 207L715 200C707.055 195.947 687.482 198.826 678.985 201.336C670.239 203.92 662.713 208.74 654 203C650.173 208.189 643.889 211.15 640.519 216.213C638.077 219.883 638.847 224.511 635.812 227.815C627.675 236.675 614.975 242.216 612.376 255.999C611.689 259.64 614.454 264.178 614.685 268.015C615.068 274.369 608.381 282.588 615 287L615 288L612 289L618 292C618.726 296.576 621.811 298.513 624.316 302.171C635.706 318.798 649.771 321.911 669 318.432C675.337 317.285 681.336 312.668 687.999 313.238C693.046 313.669 694.056 318.729 698.209 320.382C701.522 321.701 705.025 319.159 708.18 321.216C715.677 326.104 709.683 334.433 709.606 341.004C709.547 346.142 719.22 357.973 724 359C721.378 365.932 727.593 373.673 726.593 380.961C725.591 388.256 719.36 393.679 719.475 402C719.57 408.79 726.003 415.034 728.725 421C732.672 429.648 731.716 437.696 737.356 446.17C740.931 451.542 742.716 466.359 750.004 466.892C769.156 468.293 784.528 460.189 795.336 444.715C797.611 441.459 796.883 437.393 798.885 434.225C800.988 430.896 805.757 430.791 807.254 426.892C809.149 421.956 804.229 416.791 806.212 412.3C809.576 404.683 820.839 403.301 825.471 396.945C829.418 391.53 825.624 383.267 827 377C823.067 373.285 822.707 370.18 822.306 365C820.628 343.304 841.708 336.687 853.624 321.999C860.614 313.383 864.465 303.528 867 293L843.039 297.984L834 295L834 294L837 293L827 282L832 290C825.315 287.325 817.684 271.486 815.032 264.896C813.328 260.663 814.796 253.712 809 253L796 225L804 233L805 227L806 227C806.126 232.984 815.438 250.039 822 250C820.624 258.321 826.164 261.623 830.305 268.004C833.296 272.613 834.924 285.788 838.669 288.472C841.623 290.589 848.797 287.084 851.911 286.059C864.254 281.996 874.59 273.227 887 270L899 253C893.522 249.038 886.838 247.453 886 240C879.099 244.837 875.764 247.956 867 247L868 240L867 240L866 244C860.822 237.387 853.736 230.583 858 223L859 223C863.028 227.735 870.542 235.229 877.039 236.786C880.288 237.565 883.76 235.407 886.726 236.412C889.01 237.186 889.884 239.886 892.224 240.772C901.916 244.442 915.195 243.53 925 241C926.723 245.021 928.589 247.288 933 248C933.967 251.404 935.668 251.356 939 251L934 254C938.374 259.788 943.076 260.417 947 254C951.536 271.962 952.791 291.758 965 307L966 307L971 303C970.9 300.187 973.526 299.803 974 297C975.326 289.164 972.792 277.104 983 276L992 264C998.335 263.69 1001.58 257.975 1006 254L1006 256L1007 256L1007 254L1014 255L1015 252L1019 252C1020.41 258.473 1024.82 260.648 1027.86 266.039C1031.11 271.807 1030.81 284.067 1039 272C1041.25 278.672 1044.63 285.97 1045.32 293C1045.7 296.87 1043.62 301.105 1044.65 304.83C1045.68 308.543 1049.32 311.485 1050.95 315C1054.73 323.11 1055.41 328.944 1065 332C1064.13 327.827 1063.49 321.695 1061.25 318.09C1054.73 307.597 1039.5 299.46 1053 286L1054 290L1062 296C1067.31 295.81 1068.12 301.295 1069 305C1073.1 301.863 1081.36 297.472 1083.55 292.906C1089.21 281.147 1074.34 276.169 1072.22 267C1071.52 263.991 1073.98 260.722 1075 258L1087 256L1089 261L1088 258C1092.15 257.109 1100.09 256.048 1100 251C1110.73 255.862 1118.91 244.95 1124.46 237.424C1127.8 232.895 1132.2 229.949 1130 224L1126 224L1132 222L1126 218L1126 217L1131 218L1131 217L1122 208L1125 201L1134 199L1134 197L1122 199L1121 195L1115 193L1115 192L1134 185L1132 191L1146 189L1145 196C1152.6 191.248 1149.29 204.651 1150 208L1159 206C1161.36 197.949 1156.06 194.673 1153 188C1158.92 186.104 1166.05 173.325 1172 177C1189.83 175.217 1203.91 153.678 1204 137L1187 136L1188 133L1182 133C1202.16 112.204 1227.02 114.406 1253 116C1257.76 106.32 1267.88 106.528 1277 105L1276 108L1295 103L1295 104C1290.98 104.694 1290.2 107.656 1286.88 109.586C1279.56 113.843 1262.8 118.683 1259.6 127.09C1257.48 132.662 1261.01 140.793 1263 146L1269 138L1282 133C1282.05 129.167 1282.93 127.083 1287 127L1287 122L1287 121L1282 121C1289.29 108.056 1302.25 112.672 1314 110.988C1325.92 109.279 1335.25 103 1348 103C1344.93 98.2386 1341.83 95.6487 1336 96L1350 94L1348.97 79.5139L1340 76.8341L1315 75L1317 79L1303 76.8395L1274 76L1275 73L1249.01 71.9421L1234 69L1234 68L1236 68L1236 67L1216 67L1216 66L1218 66L1218 65L1199 67L1200 70L1193 71C1180.73 67.8264 1164.72 75.7301 1156 66L1160 67L1160 64L1138 62L1138 65C1125.56 62.0596 1111.55 61.3094 1099 63L1100 61L1070 65L1070 64L1100 56C1095.33 46.5309 1082.42 50.6387 1074 51L1074 50L1076 50L1076 49L1067 49L1067 48L1071 48C1064.64 45.0182 1053.51 47.6995 1049 53M216 51L216 52L226 53L226 51L229 52L233 49L240 50L239 47L216 51M280.667 47.3333L281.333 47.6667L280.667 47.3333M335 47L335 48L338 48L335 47z"/>
<path style="fill:#fdfdfd" d="M368 47L368 48L375 49L368 47z"/>
<path style="fill:#040404" d="M313 49L313 50L326 51L313 49M380 51L383 50L380 51M880 60L881 63L875 63L868 68L868 69C872.205 69 877.788 68.848 877 72L887 72L887 71C882.186 66.8466 886.156 64.9172 887 60L933 51C928.199 47.3673 922.401 50.5414 917 51.4089C909.414 52.6274 901.516 51.8978 894.001 53.75C888.728 55.0494 885.278 59.2614 880 60M264 50L267 55L248 57L248 58C255.077 57.9992 274.838 58.7714 279 53L264 50M284 50L285 51L284 50M298 50L298 51L299 55L299 56L308 56L309 52L298 50M327 51L327 52L330 53L329 56C339.298 59.1281 351.349 57.8517 362 57.7098C367.035 57.6428 371.199 58.8813 375 55L343.486 54.2307L327 51M239 52L239 53L242 54L239 55L239 56C244.354 55.7119 253.638 57.8037 257 53L239 52M294 51L292 53L292 54L299 54L294 51M288 52L288 53L291 53L288 52M1099 52L1099 53L1102 54L1099 52M1190 56L1210 57L1207 52C1201.27 53.6656 1193.45 50.3583 1190 56M230.667 53.3333L231.333 53.6667L230.667 53.3333z"/>
<path style="fill:#fdfdfd" d="M591 53L592 54L591 53z"/>
<path style="fill:#040404" d="M1211 55L1218 55L1211 55M315 57L324 57C321.509 53.7426 317.491 53.7427 315 57M1184 54L1185 55L1184 54M236 55L237 56L236 55M283.667 55.3333L284.333 55.6667L283.667 55.3333M605 55L606 56L605 55M1224 55L1224 56L1239 57L1224 55z"/>
<path style="fill:#fdfdfd" d="M594 56L595 57L594 56z"/>
<path style="fill:#040404" d="M598 56L599 57L598 56M209 59L209 60L211 61L205 68L215 70.2122L241 62C232.393 56.5923 218.742 58.9194 209 59M599 58L599 59L603 59L599 58M999 58L1000 59L999 58M1096.67 58.3333L1097.33 58.6667L1096.67 58.3333M1099 58L1100 59L1099 58M1201 59L1201 60L1204 60L1201 59M297 61L297 62L299 65L290 64L290 65L313 68L313 65L306 64L306 63L309 60L297 61M320 62L317 61L316 65L319 66L313 71L314 75L325 77L325 78L322 78L322 79L324 81L317 83L318 86L314 82L311 80L316 80C312.623 76.4532 308.665 75.3659 305 79L310 80L310 81C307.142 81.2095 306 81.1736 306 84L276 81L279 80L279 79L270 80L270 81L276 81L276 82L271 83L272 88L270 85L242 82L246 81C237.595 76.0562 218.162 75.5761 209 78L208 75L206 78L195 73L184 78L186 76L186 75L166 78L168 79L168 80C157.936 79.5668 148.027 76.2471 138 75.1736C127.231 74.0206 115.55 75.3459 105 73.1026C98.2026 71.6572 81.1443 68.1118 76 74L52 80L52 81L69 88L74 87L47 91L47 92L51 92C51.8146 98.5854 67.1942 94.3228 72 94L72 99C64.6888 100.801 57.168 99.789 53 107L58 109L56 111C59.4807 112.464 61.8453 113.341 65 111L66 111C69.2492 117.294 72.6499 115.146 78 118L86 117L72 129L98 118L97 114L114 107L113 110C109.573 108.647 103.875 112.379 109 113L109 114L107 114L107 115L119 112L118 109L119 108L125 108C127.821 113.341 147.006 113.825 152 112C153.218 117.712 161.26 117.622 166 118C164.221 121.448 166.714 123.26 169 126L170 126L166 120L166 119L167 115L168 115C169.747 118.658 177.172 121.414 173 125L178 124L178 127L181 130L184 129L186 137L187 138L191 137L196 146L200 147L200 148L194 147L194 148L197 148C200.177 152.865 206.525 154.852 212 156L205 149C207.923 150.291 222.428 158.126 213 160L214 157L208 157L214 164L214 165C206.819 167.002 210.075 181.197 209 187L214 195L218 194L216 198L223 208C233.739 209.675 235.556 216.802 241.209 224.625C243.884 228.327 248.068 229.961 246 235L264 251L259 246L244 218L266 238L265 241C271.629 244.45 281.673 252.772 279 261L279 262C287.395 269.174 299.101 275.162 310 277.468C314.023 278.319 318.145 276.23 322 277.792C330.644 281.296 336.586 289.002 347 287C350.278 298.615 363.041 306.6 374 310L373 306C378.038 304.229 378.822 305.304 383 308L384.839 322.986L380 333C374.028 335.175 368.995 344.134 376 348C366.793 357.959 379.107 371.075 385.065 381C387.667 385.335 389.15 391.2 393.062 394.475C398.869 399.336 408.94 401.139 411.392 409.285C415.146 421.758 409.097 437.681 407.052 450C406.272 454.698 407.554 459.392 406.085 464C402.949 473.833 396.769 483.271 399 494L403 493L398 507L399 503L397 509L395 508L393 511L393 512L397 513C394.981 516.498 389.804 520.315 394 524L393 527L395 526L395 527L394 533L399 534C399.576 541.254 407.473 544.219 414 543L413 545L414 545L418 545L427 543L418 535L409 537L409 536L417 533L418 524L420 525L428 514C426.047 513.6 422.119 512.957 422.631 510.024C423.086 507.422 426.848 506.36 428.45 504.586C432.071 500.576 431.719 495.659 430 491L442 490L443 483C453.029 484.69 463.534 480.339 460 469C472.853 465.94 476.911 463.423 483 451L486 452C489.175 445.846 491.914 434.197 497.055 430.16C503.431 425.153 515.362 425.491 520.156 419.525C528.463 409.188 524.524 397.937 529.069 387.384C531.741 381.179 539.651 377.109 542.721 370.83C550.701 354.512 518.494 344.161 507 349C507.529 335.356 491.721 344.358 486 345L486 344C489.716 343.396 491.598 342.575 493 339L492 338L482 340L488 331C483.934 328.78 484.355 325.132 481.525 321.904C476.186 315.812 467.516 314.417 460 316L456 314L455 314C454.608 308.855 452.227 306.257 447 306C442.389 293.411 422.039 301.928 413 292L412 292L407 297L409 303L408 304L406 304C404.679 299.451 405.342 295.921 408 292C398.705 292.744 389.559 298.771 387 308L386 308C380.836 297.641 372.618 307.735 365.619 302.003C357.627 295.459 364.918 289.399 361.637 282.329C358.52 275.616 346.805 278.739 341 278L343 268L346 268L349 257C338.697 257.085 336.468 260.358 332 269C327.328 267.624 322.521 270.24 318.005 267.856C306.954 262.025 306.092 244.567 309.824 234.278C311.352 230.065 317.426 230.354 318 226L333 228L338 227L336 225L336 224C342.141 223.629 350.047 221.711 355 226C365.905 223.937 365.155 237.827 373 243L369.847 221.004L386 204L391 204L391 203L387 203L387 202L390 199L386 193L389 189L390 189L389 194L392 195L392 190C395.403 189.412 396.272 188.351 397 185L401 185L401 184L399 184L399 183L412 181L412 180L409 180C411.383 170.093 428.006 166.545 437 167L437 168L427 171L427 173C432.42 173.216 442.985 169.655 446 165L450 165L447 162L444 167C438.863 165.464 431.913 165.635 431 159L426 158L426 157L433 156L433 154C425.981 151.983 418.76 154.935 413 159C423.655 144.238 437.158 153.37 451 147.929C454.384 146.599 460.674 145.107 463.396 142.836C467.101 139.746 463.3 136.665 460 137L458 132C443.657 130.176 443.08 117.764 431 112L428 118L413 118L413 109L382 104C383.669 108.541 384.777 112.447 381 116L381 118C390.969 123.233 386.489 130.499 377 132C383.613 149.102 367.104 145.762 366 131L328 124C326.623 119.418 324.974 117.171 320 118C318.205 108.256 325.128 105.056 332.833 101.5C334.664 100.655 332.248 100.108 332 100L332 99L348 94L348 93L334 91L334 90L352 90L352 89L349 89L349 88L360 89L359 87L360 87L370 86L366 81L369 78L355 76L357 80C351.14 81.8628 349.57 85.5533 343 83L345 80C340.99 78.6054 339.274 79.378 336 82L335 77L328 77L330 73L321 69L321 67L324 66L321 65L321 64C326.521 63.9994 331.115 64.4022 335 60L320 62M1088 60L1089 61L1088 60M276 61L277 64L270 63L273 68L262 64L246 66L247 63L232 65L233 67L229 68L229 69L242 69L242 70L232 71L232 72L256 73L256 74L235 75L235 76C254.714 80.0563 273.027 79 293 79L293 78L287 77L287 76L296 76L296 75C288.115 72.5778 279.442 71.6571 282 61L276 61M338 70L347 71L347 72L341 71C347.095 78.5342 369.934 74.8803 379 75L379 74L377 73C385.803 73.8579 408.627 80.7194 397 90L400 91L400 92L385 92L382 95L396 95.0439L407 98C407.629 103.586 422.078 104.416 427 105L427 104L416 99L416 98L431 101L430 95L418 91L418 90L420 88L437 94L443 89L442 86C438.817 86.5305 434.194 87.2227 435 84L415 80L415 79L419 79L417 77L417 76L423 76L423 75L411 76L417 74L417 73L407 75L407 72L403 72L403 71L407 71L407 70L394 70L389 68L389 67L393 67L393 66L378 68L374 66L374 68L371 67L373 64L358 62L354 64L354 65L358 66L358 67L355 68L358 69L357 72L352 71L352 70L354 69L349 64L354 62C347.304 59.1964 339.144 62.6523 338 70M372 61L372 62L388 64L388 63L372 61M1203 61L1203 62L1213 63L1203 61z"/>
<path style="fill:#fdfdfd" d="M575.667 62.3333L576.333 62.6667L575.667 62.3333z"/>
<path style="fill:#040404" d="M581 62L582 63L581 62z"/>
<path style="fill:#fdfdfd" d="M883 62L883 63L886 63L883 62z"/>
<path style="fill:#040404" d="M938 62L938 63L942 63L938 62M586 64L592 65L592 64L586 64M971.667 64.3333L972.333 64.6667L971.667 64.3333M957.333 65.6667L957.667 66.3333L957.333 65.6667M1223.67 66.3333L1224.33 66.6667L1223.67 66.3333M395 67L396 68L395 67z"/>
<path style="fill:#fdfdfd" d="M476 67L477 68L476 67M567 67L567 68L570 68L567 67z"/>
<path style="fill:#040404" d="M1220 67L1221 68L1220 67M0 69L0 71L8 71L0 69M873 70L874 71L873 70M1347 70L1347 71L1350 71L1347 70z"/>
<path style="fill:#fdfdfd" d="M350.667 71.3333L351.333 71.6667L350.667 71.3333z"/>
<path style="fill:#040404" d="M408 71L409 72L408 71M770 71L771 72L770 71M780 71L781 72L780 71M1346 71L1347 72L1346 71M471 72L471 73L475 73L471 72M572 72L572 73L579 73L572 72M888.667 72.3333L889.333 72.6667L888.667 72.3333M470 74C472.403 77.8859 475.811 77.2409 480 77L470 74M896 74L896 75L901 76L901 75L896 74M745 75L744 77L745 75M1306.67 75.3333L1307.33 75.6667L1306.67 75.3333M421 77L422 78L421 77M740.667 77.3333L741.333 77.6667L740.667 77.3333M856 78L862 78L856 78M0 79L2 93L1 89L6 89C6.41019 92.2497 22.7601 95.8533 27 96L29 94L27 92L27 91L37 90L37 89L23 86L24 89L0 79M388 79L389 80L388 79M733 79C734.556 80.8129 735.444 80.8129 737 79L733 79M393 80L394 81L393 80M478 80L478 81L481 82L478 80z"/>
<path style="fill:#fdfdfd" d="M307 83L307 84L311 84L307 83z"/>
<path style="fill:#040404" d="M350 82L351 83L350 82M386 85L393 82L386 85M476.667 82.3333L477.333 82.6667L476.667 82.3333z"/>
<path style="fill:#fdfdfd" d="M355.667 86.3333L356.333 86.6667L355.667 86.3333M358 86L359 87L358 86M480 87L480 88L485 87L480 87z"/>
<path style="fill:#040404" d="M444 87L445 88L444 87M614 88L599 90L595 93L595 90L591 91L587 90L587 91L594 93L592 95L593 98C603.127 97.8105 615.363 101.259 623 92L614 88z"/>
<path style="fill:#fdfdfd" d="M431 89L432 90L431 89z"/>
<path style="fill:#040404" d="M356 90L357 91L356 90M353 91L349 98L349 99L354 98L355 101L373 99L373 98L368 98L368 95L353 91z"/>
<path style="fill:#fdfdfd" d="M482 95L482 96L486 95L482 95z"/>
<path style="fill:#040404" d="M813 94L813 95L817 95L813 94z"/>
<path style="fill:#fdfdfd" d="M487 95L488 96L487 95M519.667 96.3333L520.333 96.6667L519.667 96.3333M324 97L325 98L324 97M328.667 98.3333L329.333 98.6667L328.667 98.3333z"/>
<path style="fill:#040404" d="M31.6667 99.3333L32.3333 99.6667L31.6667 99.3333M35.6667 99.3333L36.3333 99.6667L35.6667 99.3333M432 99L433 100L432 99M38.6667 100.333L39.3333 100.667L38.6667 100.333M382 100L383 101L382 100M361 103L361 104L367 103L361 103M375 104L375 106L377 104L375 104z"/>
<path style="fill:#fdfdfd" d="M504 108L505 109L504 108M699 108L700 109L699 108M59 109L59 110L62 111L59 109z"/>
<path style="fill:#040404" d="M1276 109L1277 110L1276 109M52 111L49 112L49 113L52 111M1299 111L1300 112L1299 111z"/>
<path style="fill:#fdfdfd" d="M411 112L412 113L411 112M735 114L736 115L735 114M737 114L738 115L737 114M162 116L163 117L162 116z"/>
<path style="fill:#040404" d="M1243.67 116.333L1244.33 116.667L1243.67 116.333M1290.67 116.333L1291.33 116.667L1290.67 116.333M102 118L101 121L95 122L95 123L103 122L102 118M652 126L654 128L658 129L657 132L663 131C662.773 134.825 662.938 136.768 659 138L660 142L656 143L656 144L665 144L665 145L656 148L656 149L679 146L679 145L676 145L676 144L681 142L681 140L675 140C673.931 133.342 668.756 128.374 662 128L667 121L659 122L663 119C656.949 116.489 654.147 120.896 652 126M759.667 118.333L760.333 118.667L759.667 118.333M649.667 119.333L650.333 119.667L649.667 119.333M170 120L171 123L172 123L172 120L170 120M744.333 121.667L744.667 122.333L744.333 121.667M651 122L652 123L651 122M712.667 122.333L713.333 122.667L712.667 122.333M175 127L179 131L175 127M64 130L64 131L71 129L64 130M721 128L717 129L717 130L721 128z"/>
<path style="fill:#fdfdfd" d="M348 129L349 130L348 129z"/>
<path style="fill:#040404" d="M713 129L715 131L713 129M644 134L638 134L638 137L641 138L637 144C646.554 143.776 650.79 141.12 653 132C649.337 130.606 645.322 129.5 644 134M61 131L62 132L61 131z"/>
<path style="fill:#fdfdfd" d="M186 131L187 132L186 131z"/>
<path style="fill:#040404" d="M1191 131L1192 132L1191 131M58 132L59 133L58 132z"/>
<path style="fill:#fdfdfd" d="M453 134L449 138L453 134z"/>
<path style="fill:#040404" d="M49.3333 135.667L49.6667 136.333L49.3333 135.667M176 135L181 140L180 135L176 135M1190 135L1191 136L1190 135z"/>
<path style="fill:#fdfdfd" d="M178 136L179 137L178 136M641 137L642 138L641 137z"/>
<path style="fill:#040404" d="M1207 137L1208 157L1215 153L1211 137L1207 137M368 138L368 139L371 139L368 138z"/>
<path style="fill:#fdfdfd" d="M641 140L642 141L641 140M379 144L380 145L379 144z"/>
<path style="fill:#040404" d="M453 159L469 160L470 160L474 157L473 152L465 150L462 151L465 145C459.365 146.576 455.229 153.822 453 159z"/>
<path style="fill:#fdfdfd" d="M861.667 149.333L862.333 149.667L861.667 149.333M867 150L868 152L867 152L858 154C858 151.374 856.237 152.209 854 153L857 155L850 153L850 157L841 155L841 156L845 156L849 161L843 162L860 188L854 185L853 188L854 189L857 188C857.523 199.427 870.666 204.791 880 198L880 197C877.883 194.07 878.616 192.553 881 190L874 185L881 185L881 183C877.657 180.385 875.999 179.116 872 181L874 176L871 177L866 172L866 171C869.897 171.164 885.027 171.548 882.628 163.957C880.943 158.625 874.317 156.174 872 151L867 150z"/>
<path style="fill:#040404" d="M436 151L436 152L442 153L436 151M1208 158L1207 164L1213 163L1213 162L1208 158M474 159L472 162L476 162L474 159z"/>
<path style="fill:#fdfdfd" d="M887 162L886 166L887 166L887 162z"/>
<path style="fill:#040404" d="M436 163L437 164L436 163M439 164L440 165L439 164M810 167L811 168L810 167M1206 168C1206.44 173.504 1203.32 175.192 1200 179L1219 176L1219 173L1206 168M1229 168L1230 169L1229 168M864 170L865 171L864 170z"/>
<path style="fill:#fdfdfd" d="M876 174L878 178L881 175L876 174M1007 177L1007 178L1013 179L1007 177M875 177L876 178L875 177z"/>
<path style="fill:#040404" d="M708 178L709 182L710 178L708 178z"/>
<path style="fill:#fdfdfd" d="M890 178L888 181L892 182L890 178z"/>
<path style="fill:#040404" d="M1200 182L1203 181L1200 182z"/>
<path style="fill:#fdfdfd" d="M884 182L885 185L889 186L884 182z"/>
<path style="fill:#040404" d="M1203 182L1204 183L1203 182M709 183L707 191C711.055 189.37 711.597 186.437 709 183M784 183L784 184L787 184L784 183z"/>
<path style="fill:#fdfdfd" d="M893 183L894 184L893 183z"/>
<path style="fill:#040404" d="M1166 209L1166 210L1183 207L1183 212L1188 209L1187 206L1201 205C1202.51 200.803 1209.52 187.772 1203.91 185.176C1200.43 183.565 1198.33 193.139 1196.24 195.32C1188.09 203.813 1176.13 204.301 1166 209M740 185L740 186L744 188L740 185z"/>
<path style="fill:#fdfdfd" d="M881 186L882 187L881 186z"/>
<path style="fill:#040404" d="M685 188L687 190L687 188L685 188z"/>
<path style="fill:#fdfdfd" d="M883 188L884 189L883 188M391 189L392 190L391 189z"/>
<path style="fill:#040404" d="M735 193L734 195L735 193M755 195L756 199L761 199C759.573 195.791 758.544 194.859 755 195M722 195L722 196L732 199L732 195L722 195M761 196L762 197L761 196M390 197L391 198L390 197M715 199L716 200L715 199z"/>
<path style="fill:#fdfdfd" d="M1200 203L1201 204L1200 203z"/>
<path style="fill:#040404" d="M768 205L768 206L771 206L768 205M797 206L797 207L802 206L797 206z"/>
<path style="fill:#fdfdfd" d="M698 207L697 211L702 208L698 207M703 209L704 211L705 211L706 209L703 209z"/>
<path style="fill:#040404" d="M1172 214L1180 210C1176.13 209.554 1173.94 210.593 1172 214M1162 214L1165 213L1164 219L1168 219L1169 213C1165.93 211.67 1164.09 211.144 1162 214M1149 212L1150 213L1149 212z"/>
<path style="fill:#fdfdfd" d="M753 223L752 226L756 227L755 223L753 223M774 230C778.743 229.635 781.608 227.017 784 223C778.589 223.131 774.917 224.203 774 230M788 223L789 224L788 223M768 226L768 227L773 229L768 226M790 226L789 228L790 226M750 228L751 229L750 228M637 229L638 230L637 229z"/>
<path style="fill:#040404" d="M612 231L613 232L612 231M616 232L617 233L616 232z"/>
<path style="fill:#fdfdfd" d="M779 240L780 241L779 240z"/>
<path style="fill:#040404" d="M1130 243C1127.06 246.689 1125.74 249.346 1127 254C1129.78 250.897 1132.37 246.858 1130 243M382.333 244.667L382.667 245.333L382.333 244.667M365 251L365 252L386 260L384 262L384 263L395 261C385.391 256.505 375.783 251.03 365 251M359 255L364 253L359 255M364 256L365 257L364 256M91 262L90 263L94 265L91 262M400 263L400 264L402 268L402 269L418 269C413.728 263.017 406.579 263.553 400 263M1091 263C1080.59 263.339 1085.41 272.354 1091 263M396 268L396 269L400 269L396 268z"/>
<path style="fill:#fdfdfd" d="M406.667 268.333L407.333 268.667L406.667 268.333z"/>
<path style="fill:#040404" d="M1128 268C1126.6 272.457 1123.37 280.128 1129 282L1129 286L1130 286L1133 269L1128 268M383 269L383 270L388 270L383 269M423 269L423 270L428 270L423 269M1133 285L1133 286L1136 286L1136 285L1133 285M1137 286L1139 289L1137 286M1127 287L1129 291L1130 291L1127 287M876.667 290.333L877.333 290.667L876.667 290.333M1142 291L1144 295L1145 295L1145 291L1142 291M1133 294C1133.51 296.475 1133.6 296.575 1136 296L1133 294z"/>
<path style="fill:#fdfdfd" d="M961 296L962 297L961 296z"/>
<path style="fill:#040404" d="M1143.33 296.667L1143.67 297.333L1143.33 296.667M445 297L444 300L445 297M1136 297L1136 303L1137 303L1138 297L1136 297M1139 297L1140 298L1139 297M1121 299L1122 300L1121 299M1140.67 300.333L1141.33 300.667L1140.67 300.333M976 302L976 315C983.483 312.363 980.94 306.235 976 302M1146 302L1140 307C1140.45 311.859 1141.33 314.104 1146 316L1146 310L1149 311L1146 302M1117 303L1116 305L1117 303M1138 305L1135 307L1138 309L1138 305M1133 308L1132 311L1133 308M1108 317L1109 319L1093 327L1092 332L1085 331C1083.36 336.569 1091.87 356.394 1098 348L1099 348L1105 353L1111 352C1110.42 346.595 1111.82 343.445 1116 340L1117 333L1120 334C1117.42 329.539 1113.09 324.304 1119 321L1118 318L1121 319L1117 317L1116 313L1108 317M1032 317L1043.9 330.285L1066 359L1072 359C1071.96 350.874 1070.58 344.109 1062 341L1064 336L1060 337L1055 330L1041 318L1032 317M707 324L708 325L707 324M1156 329L1157 330L1156 329M1040 332L1041 333L1040 332M1143 332L1136 334L1136 335C1139.22 335.714 1142.04 335.531 1143 332M1153 332L1153 333L1153 335L1153 336L1157 332L1153 332M1128 333L1135 335L1135 334L1128 333M1041 334L1042 335L1041 334M1125 335L1126 336L1125 335z"/>
<path style="fill:#fdfdfd" d="M484 339L485 340L484 339z"/>
<path style="fill:#040404" d="M1167 343L1177 346C1178.04 339.015 1170.82 338.719 1167 343M333 340L334 341L333 340M1137 340L1138 341L1137 340M1045 341L1047 344L1045 341M1123 341L1123 358C1127.5 357.035 1126.27 351.483 1125 348L1129 347L1131 355L1135 354L1130 344L1135 342L1123 341M1153 343L1154 344L1153 343M1070 344L1071 345L1070 344M1072 344L1073 348L1074 348L1072 344M1142 344L1143 345L1142 344M1177 347L1177 352C1186.54 354.04 1195.62 358.359 1191 369L1212 371L1212 370L1208 369L1208 368L1219.99 367.048L1237 376C1234.16 371.743 1223.96 366.038 1229 361L1194.01 344.547L1177 347M1172 348L1173 352L1176 347L1172 348M1079.67 348.333L1080.33 348.667L1079.67 348.333M1157 348L1156 350L1158 350L1157 348M1159 349L1159 350L1165 351L1159 349M1148 349L1152 351L1152 350L1148 349M1244 354C1240.73 358.26 1237.12 358.606 1232 358L1232 359C1237.01 361.071 1240.2 360.236 1245 358L1246 354L1244 354M1248 354L1249 355L1248 354M1134 356L1135 357L1134 356M1179 359L1178 363L1179 363L1179 359M1256 359L1257 360L1256 359M1071 363L1103 370L1104 367L1090 362C1084.51 367.09 1075.01 354.985 1071 363M1257 361L1259 363L1259 361L1257 361M1168 365L1167 367L1168 365M1105 368L1105 369L1108 370L1105 368M1117 368L1118 369L1117 368M1111 369L1112 370L1111 369M1119 369L1120 370L1119 369M1125 369L1125 370L1129 371L1125 369M1113 370L1113 371L1116 371L1113 370M1139 376L1150 371C1145.64 369.219 1140.58 371.614 1139 376M1278 371L1279 372L1278 371M1122 373L1122 374L1127 376L1122 373M1274 373L1274 374L1277 374L1274 373M1238 376L1239 377L1238 376M1282 377L1283 378L1282 377M1209 379C1204.38 387.241 1208.24 397.873 1200 404L1199 399C1185.11 401.128 1191.2 387.36 1187 380C1182.65 384.708 1178.51 382.763 1173 381L1163 386L1162 394L1155 395C1153.81 391.12 1150.82 389.366 1148 393L1146 392L1142 400L1139 399L1139 403L1136 400L1135 400L1133 402C1132.15 413.452 1120.32 412.901 1111.91 415.921C1108.35 417.202 1105.65 420.122 1102 421L1102 437C1104.2 446.033 1112.25 456.342 1106 465C1119.85 473.7 1142.32 460.042 1157 456.884C1167.88 454.544 1178.71 456.84 1183 468L1193 460L1191 468L1192 468L1194 466L1194 471L1204.02 480.122L1222 483C1225.79 481.691 1232.33 480.384 1235.41 477.977C1238.28 475.73 1239.54 469.245 1241.26 466.004C1247.1 454.994 1252.52 448.099 1248.58 435.001C1246.97 429.646 1241.41 427.418 1240 422C1236.12 420.832 1225.34 410.687 1223.44 406.896C1220.76 401.531 1221.46 392.329 1214 392L1209 379M1166.33 380.667L1166.67 381.333L1166.33 380.667M859 384L852 396L850 395C847.63 397.075 843.912 397.735 842.024 400.303C839.556 403.661 841.394 407.304 841.297 411C841.144 416.834 833.693 428.76 843.109 432.215C848.022 434.017 851.819 430.125 853.329 425.981C856.796 416.465 861.644 405.249 861 395L864 396L859 384z"/>
<path style="fill:#fdfdfd" d="M1184 387C1184.13 390.488 1181.59 394.055 1186 395L1186 387L1184 387z"/>
<path style="fill:#040404" d="M28 388L29 389L28 388M1300 394L1301 395L1300 394z"/>
<path style="fill:#fdfdfd" d="M1156 395L1157 396L1156 395z"/>
<path style="fill:#040404" d="M1347 399L1348 400L1347 399M1345 400L1346 401L1345 400M1341 406L1344 403L1341 406M1291 414L1301 421L1301 420L1291 414M883 416L884 417L883 416z"/>
<path style="fill:#fdfdfd" d="M1190 442L1191 443L1190 442M1188 443L1189 444L1188 443M1191 445L1191 448L1192 448L1191 445M1189 447L1190 448L1189 447z"/>
<path style="fill:#040404" d="M1325 469C1327.82 474.953 1332.81 479.104 1327 485L1331 492C1336.38 492.084 1341.8 483.692 1344 479C1339.55 479.456 1337.19 479.312 1334 476L1325 469M1189 471L1190 472L1189 471M1230 487L1231 488L1230 487M1218 491C1219.68 495.873 1221.04 499.022 1226 501L1231 491L1218 491M1321 491L1300 510L1301 511L1311.91 510.817L1324 502L1324 501L1322 499L1328 493L1327 492L1321 491M398 495L396 500C399.012 499.354 399.498 497.613 398 495M435 496L434 498L436 498L435 496z"/>
<path style="fill:#fdfdfd" d="M402 504L401 506L402 504z"/>
<path style="fill:#040404" d="M934 522L935 523L934 522M454 530L457 532L457 531L454 530M450 531L451 532L450 531M452 532L453 533L452 532z"/>
<path style="fill:#fdfdfd" d="M416 542L416 541L412 540L412 539L415 537C410.395 538.53 411.871 541.312 416 542z"/>
<path style="fill:#040404" d="M539 542L540 543L539 542M464 574L465 575L464 574M456 575L456 576L460 576L456 575M435 581L434 585C431.176 585.074 429.401 586.106 429 583L428 583C427.056 586.613 425.613 588.056 422 589L425 597L402 598L394 604L401 604L401 605L393 607L404 611C396.423 612.648 389.55 608.789 382.09 609.222C377.061 609.515 372.972 614.189 367.91 614.262C359.76 614.38 351.116 611.246 343 610.286C336.043 609.462 328.987 610.446 322.015 609.946C311.234 609.174 295.922 601.855 287 612L293 612L293 614L288 614L288 615L290 617L294 617L294 619C263.207 619 231.696 611.069 201.028 613.028C197.372 613.261 194.751 616.361 191 616.694C180.035 617.668 168.998 617.796 158 618.917C141.824 620.564 125.527 619.016 110.222 625.722C102.331 629.18 94.4252 626.182 86.0278 627.028C82.5505 627.378 79.6493 629.673 76 630.222C73.0714 630.663 64.9817 630.259 65 633L23 630.964L9 632L8 632L7 630L6 630L0 630L0 675L1350 675L1350 630L1320.04 627.09L1300 627L1300 630C1290.2 631.133 1288.4 627.153 1284 620L1313 610L1316 606L1291 602L1291 604L1285 601L1284 601L1266.29 597.323L1229.05 594.341L1214 592L1214 591L1217 590L1217 589L1169 586.015L1156.99 588.927L1103 590L1103 589L1108 588L1108 587L1091 585L1091 588L1062 585.043L1047 587.289L991 589.589L950.001 600.314L930 608L933 606C932.849 601.768 932.514 596.819 937 595C933.947 590.777 927.779 592.108 923 591.985C910.953 591.675 896.691 587.928 885 590C885.137 581.476 869.176 585.248 864 587L866 590L849 590L824 596C822.174 603.934 807.323 597.561 802 597L803 595L798 595C797.212 603.023 771.97 606.523 766 602C762.369 602.669 747 605.312 747 601L727 601.193L690 603.089L671 605C667.4 606.2 652.276 605.894 653 603L646 603L647 606L605 610.329L581 616L583 620C566.417 621.492 549.83 631.324 533.015 631.685C502.183 632.348 473.266 621.908 443 618L443 617L447 616L446 614C451.62 610.685 450.182 604.227 445 601L444 597L447 596L446 590L449 589C446.642 582.161 452.865 579.442 459 579L459 578L455 578L456 576L435 581M436.667 579.333L437.333 579.667L436.667 579.333M1052 583L1053 584L1052 583M419 588L416 590L416 591L419 588M392.667 599.333L393.333 599.667L392.667 599.333M735 599L736 600L735 599M395 600L396 601L395 600M679 600L680 601L679 600z"/>
<path style="fill:#fdfdfd" d="M411 601L412 602L411 601z"/>
<path style="fill:#040404" d="M691 601L692 602L691 601M390 603L390 604L393 604L390 603z"/>
<path style="fill:#fdfdfd" d="M410 603L410 604L413 604L410 603z"/>
<path style="fill:#040404" d="M630 605L631 606L630 605z"/>
<path style="fill:#fdfdfd" d="M1307 608L1310 610L1310 609L1307 608M411 611L410 613L412 613L411 611M1302 611L1303 612L1302 611M136 621L137 622L136 621M412 624L413 625L412 624M399 625L400 626L399 625M390 627L391 628L390 627M400 628L401 629L400 628M1283 633L1284 634L1283 633M74 637L75 638L74 637M387 637L388 638L387 637M393.667 640.333L394.333 640.667L393.667 640.333M100 644L101 645L100 644M19.3333 653.667L19.6667 654.333L19.3333 653.667z"/>
</svg>
